<svg width="49" height="35" viewBox="0 0 49 35" fill="none" xmlns="http://www.w3.org/2000/svg">
<g filter="url(#filter0_d_993_510)">
<path d="M44.1506 12.2819C43.5751 12.2861 43.005 12.3959 42.4678 12.6061L36.7275 7.82142C36.8687 7.29981 36.9692 6.7587 36.9692 6.18834C36.9692 2.81004 34.3026 0.0947266 30.9848 0.0947266C27.667 0.0947266 25.0003 2.81004 25.0003 6.18834C25.0003 7.15356 25.2397 8.05298 25.6275 8.86221L18.664 17.2421C18.3852 17.189 18.1025 17.1605 17.819 17.1568C17.3905 17.1568 16.9859 17.23 16.5934 17.3372L10.4581 11.09C10.5658 10.6927 10.6376 10.2808 10.6376 9.8445C10.6376 7.14381 8.50238 4.96961 5.85006 4.96961C3.19775 4.96961 1.0625 7.14381 1.0625 9.8445C1.0625 12.5452 3.19775 14.7194 5.85006 14.7194C6.27855 14.7194 6.6831 14.6463 7.07568 14.539L13.2109 20.7862C13.0959 21.1911 13.0355 21.6102 13.0314 22.0317C13.0314 24.7324 15.1667 26.9066 17.819 26.9066C20.4713 26.9066 22.6065 24.7324 22.6065 22.0317C22.6065 21.454 22.4916 20.9105 22.3121 20.3962L29.2852 12.0065C29.8286 12.1674 30.3911 12.2819 30.9848 12.2819C31.9295 12.2766 32.8593 12.0418 33.6969 11.597L39.4396 16.3817C39.3946 16.6377 39.369 16.8968 39.363 17.1568C39.363 19.8575 41.4983 22.0317 44.1506 22.0317C46.8029 22.0317 48.9381 19.8575 48.9381 17.1568C48.9381 14.4561 46.8029 12.2819 44.1506 12.2819Z" fill="#0D5C63"/>
</g>
<defs>
<filter id="filter0_d_993_510" x="-3" y="0" width="56" height="35.0967" filterUnits="userSpaceOnUse" color-interpolation-filters="sRGB">
<feFlood flood-opacity="0" result="BackgroundImageFix"/>
<feColorMatrix in="SourceAlpha" type="matrix" values="0 0 0 0 0 0 0 0 0 0 0 0 0 0 0 0 0 0 127 0" result="hardAlpha"/>
<feOffset dy="4"/>
<feGaussianBlur stdDeviation="2"/>
<feComposite in2="hardAlpha" operator="out"/>
<feColorMatrix type="matrix" values="0 0 0 0 0 0 0 0 0 0 0 0 0 0 0 0 0 0 0.25 0"/>
<feBlend mode="normal" in2="BackgroundImageFix" result="effect1_dropShadow_993_510"/>
<feBlend mode="normal" in="SourceGraphic" in2="effect1_dropShadow_993_510" result="shape"/>
</filter>
</defs>
</svg>
